<?xml version="1.0" encoding="UTF-8"?>
<svg version="1.1" xmlns="http://www.w3.org/2000/svg" width="500" height="500">
<path d="M0 0 C4.24505573 3.47322742 9.12452647 7.49092299 9.75 13.25 C7.47852194 15.52147806 5.9063084 16.07754965 2.875 17.0625 C1.57949219 17.50529297 1.57949219 17.50529297 0.2578125 17.95703125 C-2.25 18.25 -2.25 18.25 -4.5703125 16.94921875 C-6.25 15.25 -6.25 15.25 -6.25 13.25 C-10.76961078 10.99019461 -14.29254494 10.93016419 -19.25 11.25 C-22.50255878 12.9819557 -22.50255878 12.9819557 -23.3125 16.3125 C-23.23675799 21.08424651 -22.00746312 23.01759027 -19.14672852 26.71609497 C-17.25 29.25 -17.25 29.25 -15.67944336 31.86862183 C-12.9700029 36.01982758 -10.95075414 38.80864999 -6.02563477 40.08673096 C-2.07249681 40.31058701 1.80291893 40.22096461 5.75 40.0078125 C7.19576261 39.96666009 8.64166002 39.93001942 10.08764648 39.89767456 C13.87126444 39.80103335 17.64993869 39.64368315 21.43084717 39.4730835 C25.29782757 39.30953802 29.16635933 39.20418152 33.03515625 39.09375 C40.60945797 38.86904857 48.17948146 38.58011427 55.75 38.25 C55.09 37.30125 54.43 36.3525 53.75 35.375 C51.75 32.25 51.75 32.25 51.75 30.25 C51.09 30.25 50.43 30.25 49.75 30.25 C49.75 29.59 49.75 28.93 49.75 28.25 C48.91855469 28.06824219 48.08710938 27.88648438 47.23046875 27.69921875 C46.14378906 27.44785156 45.05710937 27.19648438 43.9375 26.9375 C42.85855469 26.69386719 41.77960938 26.45023438 40.66796875 26.19921875 C37.79884657 25.26588985 36.51231096 24.65539986 34.75 22.25 C34.75 21.59 34.75 20.93 34.75 20.25 C34.110625 20.023125 33.47125 19.79625 32.8125 19.5625 C30.75 18.25 30.75 18.25 30 15.625 C29.9175 14.84125 29.835 14.0575 29.75 13.25 C34.8079399 9.87804007 40.77259737 9.65225974 46.75 10.25 C52.79660476 11.53414516 56.71638066 13.40965679 60.75 18.25 C61.389375 18.971875 62.02875 19.69375 62.6875 20.4375 C67.0864764 26.43610419 70.38987315 32.16961946 72.75 39.25 C77.37 39.25 81.99 39.25 86.75 39.25 C86.75 44.2 86.75 49.15 86.75 54.25 C82.79 54.25 78.83 54.25 74.75 54.25 C74.91371094 56.11785156 75.07742188 57.98570312 75.24609375 59.91015625 C76.19646708 72.80268885 75.85478356 85.77027264 75.8125 98.6875 C75.80690008 101.36523353 75.80291428 104.0429665 75.79882812 106.72070312 C75.78789656 113.23048889 75.7712336 119.74024011 75.75 126.25 C72.68618406 127.78190797 69.48034134 127.35243613 66.125 127.3125 C63.69125 127.291875 61.2575 127.27125 58.75 127.25 C58.42 121.31 58.09 115.37 57.75 109.25 C55.77 110.57 53.79 111.89 51.75 113.25 C44.9079634 115.77699218 38.87217181 116.79313723 31.75 115.25 C31.09515625 115.13527344 30.4403125 115.02054687 29.765625 114.90234375 C21.7099729 113.29433568 15.35158978 109.08664768 10.75 102.25 C6.93780332 94.53337608 6.20781111 85.23469966 8.8125 77 C12.16282195 69.53932936 17.67929776 64.4712411 25.08203125 61.15625 C35.30291987 57.6844401 45.84452961 59.50198418 55.75 63.25 C56.12952295 69.44887485 55.5852113 73.6977112 52.75 79.25 C52.06035156 79.02183594 51.37070312 78.79367188 50.66015625 78.55859375 C42.79284666 76.15199562 36.8037328 75.18628148 29.3125 79 C26.47136657 81.49465374 25.48789509 82.56052456 24.75 86.25 C24.89813351 89.28418291 25.26669161 92.25218174 25.75 95.25 C26.41 95.25 27.07 95.25 27.75 95.25 C27.75 95.91 27.75 96.57 27.75 97.25 C35.71991499 99.75904731 42.65920525 99.13785211 50.75 97.25 C50.75 96.59 50.75 95.93 50.75 95.25 C52.40385233 93.90080468 54.071702 92.56866272 55.75 91.25 C58.18775269 87.59337096 58.09686544 84.75584571 58.1640625 80.51953125 C58.18342865 79.76911057 58.2027948 79.01868988 58.2227478 78.24552917 C58.28247459 75.85130133 58.32890065 73.45702523 58.375 71.0625 C58.4131862 69.4381302 58.45223831 67.81378052 58.4921875 66.18945312 C58.58817025 62.20979895 58.67222636 58.23004999 58.75 54.25 C57.95572098 54.32105453 57.16144196 54.39210907 56.34309387 54.46531677 C48.64984969 55.1115381 41.04209177 55.38564904 33.32421875 55.34765625 C32.21061478 55.3462413 31.0970108 55.34482635 29.94966125 55.34336853 C26.44557839 55.33783865 22.94156305 55.32530001 19.4375 55.3125 C17.03971447 55.30747591 14.64192793 55.30291461 12.24414062 55.29882812 C6.41273797 55.28789233 0.58137381 55.271226 -5.25 55.25 C-5.24777939 56.1372728 -5.24555878 57.02454559 -5.24327087 57.93870544 C-5.22327039 66.28244657 -5.20802711 74.62617969 -5.19818783 82.96993923 C-5.19295939 87.25999915 -5.18586247 91.55003933 -5.17456055 95.84008789 C-5.16373025 99.976794 -5.15772286 104.11348108 -5.15512276 108.25020027 C-5.15326876 109.83192304 -5.14964864 111.41364471 -5.14426994 112.99535942 C-5.1370576 115.20322838 -5.13600914 117.41101773 -5.13647461 119.61889648 C-5.134254 120.87798325 -5.13203339 122.13707001 -5.12974548 123.43431091 C-5.25 126.25 -5.25 126.25 -6.25 127.25 C-8.58160055 127.34909302 -10.91629942 127.37970504 -13.25 127.375 C-14.52875 127.37757813 -15.8075 127.38015625 -17.125 127.3828125 C-20.25 127.25 -20.25 127.25 -21.25 126.25 C-21.34432985 124.04132169 -21.36742431 121.82958479 -21.36352539 119.61889648 C-21.36367142 118.92624695 -21.36381744 118.23359741 -21.3639679 117.5199585 C-21.36326874 115.22030554 -21.35547628 112.92073263 -21.34765625 110.62109375 C-21.34579208 109.03068588 -21.34436817 107.44027743 -21.34336853 105.84986877 C-21.33954329 101.6560407 -21.32971295 97.46224705 -21.31866455 93.26843262 C-21.30845057 88.99211086 -21.30387094 84.71578356 -21.29882812 80.43945312 C-21.28809068 72.04295116 -21.27049384 63.64648382 -21.25 55.25 C-27.52 55.58 -33.79 55.91 -40.25 56.25 C-39.26 58.23 -38.27 60.21 -37.25 62.25 C-34.75046498 75.65659695 -35.6295611 89.61880378 -43.25 101.25 C-47.79225014 106.38656325 -52.50311405 108.8502082 -59.3984375 109.5859375 C-66.54377516 109.6724428 -71.16558766 109.06767049 -77.25 105.25 C-77.25 104.59 -77.25 103.93 -77.25 103.25 C-78.18392578 102.87875 -78.18392578 102.87875 -79.13671875 102.5 C-82.36544367 100.59021816 -82.75995383 98.3029959 -83.76171875 94.81640625 C-84.78787797 89.42291337 -84.6690657 84.76485312 -81.9296875 79.91015625 C-78.4547772 75.44125998 -75.1048294 73.0425778 -69.45703125 72.234375 C-64.48073888 72.26960539 -61.28400405 74.24250888 -57.8125 77.625 C-56.100378 80.50136495 -55.79384793 81.96570513 -56.25 85.25 C-57.98956658 86.98956658 -60.4436622 86.62190386 -62.8125 86.8125 C-64.33037109 86.93818359 -64.33037109 86.93818359 -65.87890625 87.06640625 C-66.66136719 87.12699219 -67.44382813 87.18757813 -68.25 87.25 C-68.50030977 89.66619823 -68.50030977 89.66619823 -68.25 92.25 C-64.3996895 94.81687367 -62.66430237 94.08288724 -58.25 93.25 C-53.40195274 81.82246003 -53.19547751 71.51299908 -55.91015625 59.39453125 C-57.48767639 56.33675463 -57.48767639 56.33675463 -64.25 55.25 C-73.82 54.92 -83.39 54.59 -93.25 54.25 C-93.25 78.01 -93.25 101.77 -93.25 126.25 C-96.29982258 127.77491129 -99.47122539 127.39361434 -102.8125 127.375 C-103.85954102 127.38080078 -103.85954102 127.38080078 -104.92773438 127.38671875 C-110.12336006 127.37663994 -110.12336006 127.37663994 -111.25 126.25 C-111.34432985 124.04132169 -111.36742431 121.82958479 -111.36352539 119.61889648 C-111.36367142 118.92624695 -111.36381744 118.23359741 -111.3639679 117.5199585 C-111.36326874 115.22030554 -111.35547628 112.92073263 -111.34765625 110.62109375 C-111.34579208 109.03068588 -111.34436817 107.44027743 -111.34336853 105.84986877 C-111.33954329 101.6560407 -111.32971295 97.46224705 -111.31866455 93.26843262 C-111.30845057 88.99211086 -111.30387094 84.71578356 -111.29882812 80.43945312 C-111.28809068 72.04295116 -111.27049384 63.64648382 -111.25 55.25 C-117.19 55.25 -123.13 55.25 -129.25 55.25 C-129.23952637 56.60569092 -129.22905273 57.96138184 -129.21826172 59.3581543 C-129.18174115 64.44422712 -129.15898415 69.53028863 -129.14013672 74.61645508 C-129.13015156 76.80723019 -129.11655875 78.99799223 -129.09912109 81.1887207 C-128.89956742 106.9252751 -132.52984078 126.54038705 -147.09057617 148.21655273 C-153.11695798 157.31650871 -155.47926927 166.47434409 -155.25 177.25 C-156.25 178.25 -156.25 178.25 -158.56665039 178.36352539 C-159.56688232 178.35828857 -160.56711426 178.35305176 -161.59765625 178.34765625 C-162.67724609 178.34443359 -163.75683594 178.34121094 -164.86914062 178.33789062 C-166.00544922 178.32951172 -167.14175781 178.32113281 -168.3125 178.3125 C-169.45267578 178.30798828 -170.59285156 178.30347656 -171.76757812 178.29882812 C-174.59510351 178.28699747 -177.4225264 178.2705141 -180.25 178.25 C-180.39185022 169.77444934 -180.39185022 169.77444934 -179.25 166 C-178.0782249 162.25268399 -178.0782249 162.25268399 -178.25 158.25 C-178.91 157.92 -179.57 157.59 -180.25 157.25 C-182.32508088 162.05153244 -183.55805917 167.02150124 -184.83789062 172.07421875 C-186.14939711 177.14939711 -186.14939711 177.14939711 -187.25 178.25 C-188.66570123 178.33651611 -190.085595 178.35704904 -191.50390625 178.34765625 C-192.35791016 178.34443359 -193.21191406 178.34121094 -194.09179688 178.33789062 C-194.98962891 178.32951172 -195.88746094 178.32113281 -196.8125 178.3125 C-197.71419922 178.30798828 -198.61589844 178.30347656 -199.54492188 178.29882812 C-201.78001314 178.28700225 -204.01497437 178.2705222 -206.25 178.25 C-207.38083537 165.83175237 -204.34824838 155.20049009 -196.75 145.25 C-195.59617275 143.90554042 -194.43040447 142.57118665 -193.25 141.25 C-192.79109375 140.6621875 -192.3321875 140.074375 -191.859375 139.46875 C-188.10301044 134.71932355 -183.57769752 131.10223208 -178.8359375 127.36328125 C-176.2294983 125.31452983 -176.2294983 125.31452983 -174.0390625 122.98046875 C-172.25 121.25 -172.25 121.25 -170.25 121.25 C-169.98445313 120.65316406 -169.71890625 120.05632812 -169.4453125 119.44140625 C-168.21445225 117.18482913 -167.0153343 115.90638538 -165.125 114.1875 C-158.19746715 107.44797952 -153.55958486 99.86916973 -149.25 91.25 C-155.52 90.92 -161.79 90.59 -168.25 90.25 C-168.188125 92.085625 -168.12625 93.92125 -168.0625 95.8125 C-168.0715754 103.52658636 -169.84642297 108.51893345 -175.25 114.25 C-180.49902577 117.32663486 -186.02951477 117.62635343 -191.9375 116.625 C-197.51683278 114.30905054 -201.83062066 110.85277321 -204.25 105.25 C-205.68780369 98.38481123 -205.83143003 92.05576295 -202.3125 85.8125 C-201.2915625 84.5440625 -201.2915625 84.5440625 -200.25 83.25 C-199.59 83.25 -198.93 83.25 -198.25 83.25 C-198.25 82.59 -198.25 81.93 -198.25 81.25 C-193.96630445 78.03722834 -190.82945693 77.64486423 -185.25 76.25 C-184.92 69.32 -184.59 62.39 -184.25 55.25 C-187.22 55.745 -187.22 55.745 -190.25 56.25 C-192.49862914 56.33889929 -194.7496202 56.38018521 -197 56.375 C-198.69382812 56.37886719 -198.69382812 56.37886719 -200.421875 56.3828125 C-203.25 56.25 -203.25 56.25 -205.25 55.25 C-205.27685412 52.93756208 -205.29632841 50.6250373 -205.3125 48.3125 C-205.32410156 47.02472656 -205.33570313 45.73695313 -205.34765625 44.41015625 C-205.25 41.25 -205.25 41.25 -204.25 40.25 C-201.99769185 40.12833291 -199.74153099 40.07800069 -197.48606873 40.05381775 C-196.41285459 40.04028545 -196.41285459 40.04028545 -195.31795937 40.02647978 C-192.90267624 39.99723862 -190.48737871 39.97509883 -188.07202148 39.95288086 C-186.34775314 39.93345357 -184.62348965 39.91359182 -182.89923096 39.89332581 C-178.20319937 39.83937212 -173.50712263 39.79153315 -168.81101489 39.74474788 C-163.9088882 39.6948847 -159.00682457 39.63945909 -154.10475159 39.58460999 C-144.81521639 39.48152195 -135.52563501 39.3834753 -126.23602682 39.28721577 C-115.66300599 39.17741374 -105.09004843 39.06202823 -94.51709259 38.94616115 C-72.76145994 38.70787094 -51.005757 38.47663331 -29.25 38.25 C-29.745 37.63125 -30.24 37.0125 -30.75 36.375 C-32.25 34.25 -32.25 34.25 -32.25 32.25 C-32.91 32.25 -33.57 32.25 -34.25 32.25 C-38.24235008 26.45465311 -39.52677149 21.30767287 -39.25 14.25 C-38.29638168 9.71350142 -36.81938002 6.10407003 -34.25 2.25 C-33.59 2.25 -32.93 2.25 -32.25 2.25 C-32.25 1.59 -32.25 0.93 -32.25 0.25 C-31.00264433 -0.4009259 -29.75198168 -1.04551669 -28.5 -1.6875 C-27.80390625 -2.04714844 -27.1078125 -2.40679687 -26.390625 -2.77734375 C-17.52035892 -6.80781137 -8.24440505 -4.43929502 0 0 Z M-168.25 55.25 C-168.25 62.18 -168.25 69.11 -168.25 76.25 C-160.99 76.25 -153.73 76.25 -146.25 76.25 C-146.25 69.32 -146.25 62.39 -146.25 55.25 C-153.51 55.25 -160.77 55.25 -168.25 55.25 Z M-187.875 95.4375 C-189.56633351 97.23262093 -189.56633351 97.23262093 -188.9375 99.9375 C-188.710625 100.700625 -188.48375 101.46375 -188.25 102.25 C-187.26 101.92 -186.27 101.59 -185.25 101.25 C-185.25 98.94 -185.25 96.63 -185.25 94.25 C-186.45087736 94.1516639 -186.45087736 94.1516639 -187.875 95.4375 Z M-149.25 117.25 C-150.30654417 118.72506444 -151.3207001 120.23064696 -152.3125 121.75 C-153.13427734 123.00296875 -153.13427734 123.00296875 -153.97265625 124.28125 C-154.60494141 125.25578125 -154.60494141 125.25578125 -155.25 126.25 C-154.26 125.92 -153.27 125.59 -152.25 125.25 C-152.25 124.59 -152.25 123.93 -152.25 123.25 C-151.59 123.25 -150.93 123.25 -150.25 123.25 C-149.59 121.27 -148.93 119.29 -148.25 117.25 C-148.58 117.25 -148.91 117.25 -149.25 117.25 Z M-164.25 136.25 C-165.84671399 137.86400692 -167.37996047 139.5413834 -168.875 141.25 C-169.69226563 142.178125 -170.50953125 143.10625 -171.3515625 144.0625 C-171.97804687 144.784375 -172.60453125 145.50625 -173.25 146.25 C-172.26 146.58 -171.27 146.91 -170.25 147.25 C-168.91072279 145.79712339 -167.57873153 144.33752741 -166.25 142.875 C-165.5075 142.06289063 -164.765 141.25078125 -164 140.4140625 C-162.04040187 138.45466008 -162.04040187 138.45466008 -162.25 136.25 C-162.91 136.25 -163.57 136.25 -164.25 136.25 Z " fill="#ffffffff" transform="translate(265.25,152.75)"/>
<path d="M0 0 C1.84765625 -0.35644531 1.84765625 -0.35644531 4.0625 -0.328125 C4.85914063 -0.32296875 5.65578125 -0.3178125 6.4765625 -0.3125 C7.72566406 -0.2815625 7.72566406 -0.2815625 9 -0.25 C10.24910156 -0.24226562 10.24910156 -0.24226562 11.5234375 -0.234375 C17.69092608 -0.15453696 17.69092608 -0.15453696 20 1 C20 2.32 20 3.64 20 5 C22.31 5 24.62 5 27 5 C27.80867674 7.33733665 28.12401827 8.61044569 27.36328125 11 C25.30982701 14.90843335 23.40701943 18.07969763 20 21 C22.64 21 25.28 21 28 21 C27.07934219 27.30719307 26.0022542 30.91921368 21 35 C23.31 35.66 25.62 36.32 28 37 C27.91253716 38.43861294 27.80434652 39.87597508 27.6875 41.3125 C27.62949219 42.11300781 27.57148438 42.91351563 27.51171875 43.73828125 C26.91793306 46.36272334 26.04219706 47.30820672 24 49 C25.98 49.33 27.96 49.66 30 50 C30.02685412 52.31243792 30.04632841 54.6249627 30.0625 56.9375 C30.07410156 58.22527344 30.08570313 59.51304687 30.09765625 60.83984375 C30 64 30 64 29 65 C27.58620481 65.09931619 26.16727151 65.12969295 24.75 65.125 C23.98171875 65.12757813 23.2134375 65.13015625 22.421875 65.1328125 C20 65 20 65 15 64 C15 87.76 15 111.52 15 136 C12.02760209 137.48619895 9.30380422 137.13177009 6 137.125 C4.741875 137.12757813 3.48375 137.13015625 2.1875 137.1328125 C-1 137 -1 137 -3 136 C-3.4140625 132.83984375 -3.4140625 132.83984375 -3.625 128.9375 C-3.69976562 127.64714844 -3.77453125 126.35679687 -3.8515625 125.02734375 C-3.90054688 124.02832031 -3.94953125 123.02929688 -4 122 C-5.010625 122.61875 -6.02125 123.2375 -7.0625 123.875 C-13.09438403 127.56799022 -19.45753577 128.3905571 -26.375 128.375 C-27.49708862 128.37258301 -27.49708862 128.37258301 -28.6418457 128.37011719 C-34.51644119 128.23978358 -38.98231346 127.16213069 -44 124 C-45.60875 123.13375 -45.60875 123.13375 -47.25 122.25 C-52.17607223 118.21957726 -54.62213264 114.81572133 -55.484375 108.390625 C-55.87864021 97.30739197 -55.87864021 97.30739197 -52.625 92.5625 C-50 90 -50 90 -48 90 C-48.47050781 89.45472656 -48.94101562 88.90945312 -49.42578125 88.34765625 C-54.93063615 81.68028541 -58.40396395 75.83708707 -58.0625 67 C-57.21828188 61.34549742 -54.98058382 57.09339389 -51 53 C-45.79439272 49.22372896 -40.55119949 47.21692341 -34.08984375 47.6484375 C-26.39458381 48.94296721 -21.06928729 53.53467564 -16.0625 59.1875 C-13.53410217 65.8803178 -14.7628839 72.42847147 -17 79 C-17.06524393 81.62199052 -17.0020047 84.208653 -16.875 86.828125 C-17 89 -17 89 -19 91 C-21.09054783 91.78716398 -23.19740566 92.5313949 -25.3125 93.25 C-30.8917387 95.34838624 -34.06034306 96.77394322 -37 102 C-37.66840854 104.62985808 -37.66840854 104.62985808 -37 107 C-35.12139167 109.5048111 -34.03898126 109.98700625 -31 111 C-23.36592909 111.68161347 -16.07873239 109.98621478 -9.8125 105.3984375 C-8.62581775 104.35514602 -7.46398344 103.28227215 -6.33984375 102.171875 C-5 101 -5 101 -3 101 C-3 89.12 -3 77.24 -3 65 C-5.97 65 -8.94 65 -12 65 C-13 64 -13 64 -13.1328125 60.875 C-13.13023437 59.59625 -13.12765625 58.3175 -13.125 57 C-13.12886719 55.081875 -13.12886719 55.081875 -13.1328125 53.125 C-13 50 -13 50 -12 49 C-10.00041636 48.95919217 -7.99954746 48.95745644 -6 49 C-6.495 47.948125 -6.99 46.89625 -7.5 45.8125 C-8.81786289 42.74784716 -9.39711537 40.37548067 -9 37 C-8 36 -8 36 -4.9375 35.9375 C-3.968125 35.958125 -2.99875 35.97875 -2 36 C-2.63228516 35.38125 -2.63228516 35.38125 -3.27734375 34.75 C-7.59202022 30.20182339 -8.7803167 27.26097416 -9 21 C-6.69 21 -4.38 21 -2 21 C-2.63228516 20.25556641 -2.63228516 20.25556641 -3.27734375 19.49609375 C-6.9597693 14.92988606 -8.75459355 11.88975471 -9 6 C-7.88625 5.566875 -6.7725 5.13375 -5.625 4.6875 C-1.82487666 3.30088881 -1.82487666 3.30088881 0 0 Z M-39.9375 64.5 C-42.30647937 66.92757249 -42.30647937 66.92757249 -42.5 70.5625 C-42.21322285 73.84514374 -42.21322285 73.84514374 -41 75.9375 C-37.74693441 77.66569109 -34.52891707 77.75822114 -31 77 C-28.29267797 74.97071986 -28.29267797 74.97071986 -27 72 C-27.16916843 68.44746291 -27.99952233 67.0007165 -30 64 C-34.07839612 62.84573695 -36.12009638 62.55068751 -39.9375 64.5 Z " fill="#ffffffff" transform="translate(413,143)"/>
<path d="M0 0 C0 1.32 0 2.64 0 4 C2.31 4 4.62 4 7 4 C7.80867674 6.33733665 8.12401827 7.61044569 7.36328125 10 C5.30982701 13.90843335 3.40701943 17.07969763 0 20 C2.64 20 5.28 20 8 20 C6.82713348 28.19256018 6.82713348 28.19256018 3.375 31.5625 C2.59125 32.036875 1.8075 32.51125 1 33 C0.87625 32.360625 0.7525 31.72125 0.625 31.0625 C0.41875 30.381875 0.2125 29.70125 0 29 C-0.66 28.67 -1.32 28.34 -2 28 C-2.33 27.67 -2.66 27.34 -3 27 C-3.8353125 28.4540625 -3.8353125 28.4540625 -4.6875 29.9375 C-7 33 -7 33 -9.4375 34.125 C-13.11410833 33.94565325 -14.53936281 32.67154895 -17 30 C-17.65420677 26.72896614 -17.31567651 25.48666796 -15.5 22.6875 C-15.005 22.130625 -14.51 21.57375 -14 21 C-14.515625 20.21625 -15.03125 19.4325 -15.5625 18.625 C-17.47664133 13.7980349 -16.82535865 10.03170452 -16 5 C-15.34 5 -14.68 5 -14 5 C-15.83333333 1.83333333 -15.83333333 1.83333333 -19 0 C-4.28169014 -2.14084507 -4.28169014 -2.14084507 0 0 Z " fill="#ffffffff" transform="translate(433,144)"/>
<path d="M0 0 C3.36157227 -0.13012695 3.36157227 -0.13012695 7 0 C9.21484375 2.08203125 9.21484375 2.08203125 10.9375 4.8125 C11.52402344 5.70582031 12.11054688 6.59914063 12.71484375 7.51953125 C14 10 14 10 14 13 C17.44453613 9.95951503 19.03272243 6.16261659 21.01171875 2.08203125 C21.66785156 1.39496094 22.32398438 0.70789063 23 0 C25.64 0 28.28 0 31 0 C31 9.9 31 19.8 31 30 C28.69 30 26.38 30 24 30 C23.67 25.38 23.34 20.76 23 16 C22.29875 17.155 21.5975 18.31 20.875 19.5 C18.86612471 22.29421464 18.39184626 22.89604079 14.9375 23.8125 C12 23 12 23 9.625 20 C9.08875 19.01 8.5525 18.02 8 17 C7.67 21.29 7.34 25.58 7 30 C5.02 30.33 3.04 30.66 1 31 C0 30 0 30 -0.11352539 27.13256836 C-0.10828857 25.88096924 -0.10305176 24.62937012 -0.09765625 23.33984375 C-0.0962413 22.67537735 -0.09482635 22.01091095 -0.09336853 21.3263092 C-0.08775518 19.19666101 -0.07520054 17.06711661 -0.0625 14.9375 C-0.05748671 13.49674631 -0.05292351 12.05599097 -0.04882812 10.61523438 C-0.03778145 7.07678898 -0.02050792 3.53840461 0 0 Z " fill="#ffffffff" transform="translate(141,300)"/>
<path d="M0 0 C1.125 2 1.125 2 1 4 C-0.1875 5.8125 -0.1875 5.8125 -2 7 C-4.13745922 6.74853421 -5.45925779 6.54074221 -7 5 C-9.32817964 4.63239269 -11.6618385 4.29758419 -14 4 C-14 4.66 -14 5.32 -14 6 C-14.48726562 6.4434375 -14.97453125 6.886875 -15.4765625 7.34375 C-17.44154797 9.4800419 -17.40362689 10.63731065 -17.375 13.5 C-17.38273438 14.2734375 -17.39046875 15.046875 -17.3984375 15.84375 C-16.90385589 18.52030928 -16.18232979 19.40464167 -14 21 C-10.45786015 21.50007794 -10.45786015 21.50007794 -7 21 C-6.34 20.01 -5.68 19.02 -5 18 C-6.98 17.67 -8.96 17.34 -11 17 C-11 15.02 -11 13.04 -11 11 C-9.02090602 10.97313447 -7.04171029 10.95366625 -5.0625 10.9375 C-3.96035156 10.92589844 -2.85820312 10.91429687 -1.72265625 10.90234375 C1 11 1 11 2 12 C2.63382258 17.39654656 2.99226071 21.62186013 -0.25 26.125 C-4.84697419 29.25930058 -8.43858228 29.37704527 -14 29 C-19.18948982 27.32880836 -21.97204246 25.54193631 -25 21 C-27.09071372 16.81857256 -26.43450877 11.55341387 -26 7 C-23.7587202 2.43739468 -21.0113436 -0.85776622 -16.1875 -2.6875 C-9.91763977 -3.58319432 -5.47599533 -3.06655739 0 0 Z " fill="#ffffffff" transform="translate(266,302)"/>
<path d="M0 0 C4.021875 -0.0928125 4.021875 -0.0928125 8.125 -0.1875 C8.95789551 -0.21481201 9.79079102 -0.24212402 10.64892578 -0.27026367 C15.51782832 -0.32428514 18.77029918 0.33302834 23 3 C27.03478792 7.45217977 27.29509524 11.71445697 27.2109375 17.49609375 C26.8017917 22.35280598 25.13423076 25.03730414 21.46875 28.1484375 C16.97463049 30.54732562 13.61044122 30.45511737 8.625 30.25 C4.355625 30.12625 4.355625 30.12625 0 30 C0 20.1 0 10.2 0 0 Z M7 6 C7 11.61 7 17.22 7 23 C13.20748632 23.38540019 13.20748632 23.38540019 18 21 C19.88886253 18.48151662 20.00715839 17.17180132 19.875 14 C18.87788701 10.58132688 17.72757889 9.23165546 15 7 C12.47825081 5.5527864 12.47825081 5.5527864 7 6 Z " fill="#ffffffff" transform="translate(335,300)"/>
<path d="M0 0 C2.56314499 -0.08132187 5.12368418 -0.14064175 7.6875 -0.1875 C8.40873047 -0.21263672 9.12996094 -0.23777344 9.87304688 -0.26367188 C14.47517679 -0.32671475 17.36095842 0.13205645 21 3 C22.96728267 5.72881144 24.10569066 7.63891058 23.83984375 11.0625 C22.97971701 14.99450796 22.0496048 17.27894378 19 20 C19.37253906 20.55429687 19.74507812 21.10859375 20.12890625 21.6796875 C20.60199219 22.40414063 21.07507813 23.12859375 21.5625 23.875 C22.03816406 24.59429687 22.51382813 25.31359375 23.00390625 26.0546875 C23.33261719 26.69664062 23.66132813 27.33859375 24 28 C23.67 28.66 23.34 29.32 23 30 C20.36 30 17.72 30 15 30 C11 23.25 11 23.25 11 21 C9.68 21 8.36 21 7 21 C7 23.97 7 26.94 7 30 C5.0085944 30.38133299 3.00720923 30.71325582 1 31 C0 30 0 30 -0.11352539 27.13256836 C-0.10828857 25.88096924 -0.10305176 24.62937012 -0.09765625 23.33984375 C-0.0962413 22.67537735 -0.09482635 22.01091095 -0.09336853 21.3263092 C-0.08775518 19.19666101 -0.07520054 17.06711661 -0.0625 14.9375 C-0.05748671 13.49674631 -0.05292351 12.05599097 -0.04882812 10.61523438 C-0.03778145 7.07678898 -0.02050792 3.53840461 0 0 Z M7 6 C7 8.64 7 11.28 7 14 C11.14093698 14.20970559 11.14093698 14.20970559 15 13 C15.16687448 10.58354218 15.16687448 10.58354218 15 8 C13.10244856 5.65026182 13.10244856 5.65026182 9.875 5.875 C8.92625 5.91625 7.9775 5.9575 7 6 Z " fill="#ffffffff" transform="translate(212,300)"/>
<path d="M0 0 C2.05078125 0.03255208 4.1015625 0.06510417 6.15234375 0.09765625 C9.20983926 7.10573016 12.22514448 14.13333025 15.08984375 21.22265625 C15.72212891 22.77339844 15.72212891 22.77339844 16.3671875 24.35546875 C17.17041085 27.16075627 17.18508858 28.41636843 16.15234375 31.09765625 C14.17234375 31.09765625 12.19234375 31.09765625 10.15234375 31.09765625 C9.16234375 29.11765625 8.17234375 27.13765625 7.15234375 25.09765625 C3.85234375 25.09765625 0.55234375 25.09765625 -2.84765625 25.09765625 C-3.83765625 27.07765625 -4.82765625 29.05765625 -5.84765625 31.09765625 C-7.82765625 31.09765625 -9.80765625 31.09765625 -11.84765625 31.09765625 C-13.24724509 26.89888973 -11.64394111 24.00564272 -10.16015625 20.03515625 C-9.88341064 19.27525391 -9.60666504 18.51535156 -9.3215332 17.73242188 C-2.87854807 0.15214313 -2.87854807 0.15214313 0 0 Z M1.15234375 12.09765625 C0.49234375 13.74765625 -0.16765625 15.39765625 -0.84765625 17.09765625 C0.80234375 17.09765625 2.45234375 17.09765625 4.15234375 17.09765625 C3.49234375 15.44765625 2.83234375 13.79765625 2.15234375 12.09765625 C1.82234375 12.09765625 1.49234375 12.09765625 1.15234375 12.09765625 Z " fill="#ffffffff" transform="translate(412.84765625,299.90234375)"/>
<path d="M0 0 C2.64 0 5.28 0 8 0 C9.59937278 3.76600703 11.18377031 7.53792894 12.75463867 11.31591797 C13.2909346 12.59985158 13.83127001 13.88210575 14.37573242 15.16259766 C15.15826957 17.00495451 15.92504907 18.85397929 16.69140625 20.703125 C17.15748291 21.81333008 17.62355957 22.92353516 18.10375977 24.06738281 C18.99799637 26.99344385 19.11881744 28.21037562 18 31 C15.1875 31.3125 15.1875 31.3125 12 31 C10.11400657 28.61107499 9 27.08148442 9 24 C5.5753227 24.01285057 2.3266373 24.14825228 -1 25 C-3.23886732 27.88679844 -3.23886732 27.88679844 -4 31 C-6.31 31 -8.62 31 -11 31 C-10.44764584 24.77114458 -8.44960547 19.56267797 -6.0625 13.8125 C-5.70220703 12.92369141 -5.34191406 12.03488281 -4.97070312 11.11914062 C-3.42981872 7.34212932 -1.86201684 3.63162975 0 0 Z M5 13 C3.68 14.32 2.36 15.64 1 17 C2.65 17 4.3 17 6 17 C5.67 15.68 5.34 14.36 5 13 Z " fill="#ffffffff" transform="translate(188,300)"/>
<path d="M0 0 C2.97 0.495 2.97 0.495 6 1 C6 10.9 6 20.8 6 31 C3.69 31 1.38 31 -1 31 C-1 27.04 -1 23.08 -1 19 C-4.96 19 -8.92 19 -13 19 C-13 22.96 -13 26.92 -13 31 C-17 32 -17 32 -19 31 C-19.16728213 26.88850113 -19.32787468 22.77680194 -19.48217773 18.66479492 C-19.53566026 17.26498319 -19.59099434 15.86524096 -19.64819336 14.46557617 C-19.72992949 12.4577104 -19.80453025 10.44955813 -19.87890625 8.44140625 C-19.9260376 7.23170166 -19.97316895 6.02199707 -20.02172852 4.77563477 C-20 2 -20 2 -19 1 C-17.00041636 0.95919217 -14.99954746 0.95745644 -13 1 C-13 4.63 -13 8.26 -13 12 C-9.04 12 -5.08 12 -1 12 C-1.020625 10.205625 -1.04125 8.41125 -1.0625 6.5625 C-1.0838122 4.70833878 -1.07226502 2.85287502 -1 1 C-0.67 0.67 -0.34 0.34 0 0 Z " fill="#ffffffff" transform="translate(388,299)"/>
<path d="M0 0 C6.93 0 13.86 0 21 0 C21 1.98 21 3.96 21 6 C16.38 6 11.76 6 7 6 C7 7.98 7 9.96 7 12 C8.15628906 11.98259766 8.15628906 11.98259766 9.3359375 11.96484375 C10.33882813 11.95582031 11.34171875 11.94679688 12.375 11.9375 C13.37273437 11.92589844 14.37046875 11.91429687 15.3984375 11.90234375 C18 12 18 12 20 13 C19.125 17.875 19.125 17.875 18 19 C16.14712498 19.07226502 14.29166122 19.0838122 12.4375 19.0625 C11.42558594 19.05347656 10.41367187 19.04445313 9.37109375 19.03515625 C8.19740234 19.01775391 8.19740234 19.01775391 7 19 C7 20.65 7 22.3 7 24 C11.62 24 16.24 24 21 24 C21 25.98 21 27.96 21 30 C14.07 30 7.14 30 0 30 C0 20.1 0 10.2 0 0 Z " fill="#ffffffff" transform="translate(307,300)"/>
<path d="M0 0 C2.31 0.33 4.62 0.66 7 1 C8.98 6.61 10.96 12.22 13 18 C15.75361142 15.24638858 16.47414027 12.00154636 17.625 8.375 C17.85445313 7.66859375 18.08390625 6.9621875 18.3203125 6.234375 C18.88562421 4.49133055 19.44352544 2.74588584 20 1 C23.465 0.505 23.465 0.505 27 0 C28.58342713 4.78732063 27.13567837 8.22920148 25.3125 12.6875 C25.03647949 13.39068359 24.76045898 14.09386719 24.47607422 14.81835938 C23.66247627 16.88382851 22.83265693 18.94215518 22 21 C21.57332031 22.07894531 21.14664062 23.15789062 20.70703125 24.26953125 C19.81616451 26.51760291 18.91013774 28.75966095 18 31 C15.03 31 12.06 31 9 31 C8.29423828 28.93878906 8.29423828 28.93878906 7.57421875 26.8359375 C6.94552837 25.01555043 6.31661009 23.19524206 5.6875 21.375 C5.37876953 20.47136719 5.07003906 19.56773437 4.75195312 18.63671875 C3.4203086 14.79597558 2.08428669 11.16706826 0.25 7.53125 C-1.23586675 4.52236984 -1.01561002 3.13915825 0 0 Z " fill="#ffffffff" transform="translate(273,299)"/>
<path d="M0 0 C-0.61277612 2.96175123 -1.25372522 4.38058783 -3 7 C-3.34475552 9.11305408 -3.34475552 9.11305408 -3.4375 11.375 C-3.82573293 15.28278723 -4.22038122 18.0350733 -7 21 C-10.6875 21.8125 -10.6875 21.8125 -14 22 C-17.26584133 15.99085195 -17.11477625 11.67522647 -16 5 C-15.34 5 -14.68 5 -14 5 C-15.83333333 1.83333333 -15.83333333 1.83333333 -19 0 C-4.28169014 -2.14084507 -4.28169014 -2.14084507 0 0 Z " fill="#ffffffff" transform="translate(433,144)"/>
<path d="M0 0 C2.1640625 -0.29296875 2.1640625 -0.29296875 4.625 -0.1875 C5.44226563 -0.16042969 6.25953125 -0.13335937 7.1015625 -0.10546875 C8.04128906 -0.05326172 8.04128906 -0.05326172 9 0 C9 0.33 9 0.66 9 1 C8.01 1.33 7.02 1.66 6 2 C6 3.32 6 4.64 6 6 C5.34 6 4.68 6 4 6 C4 6.99 4 7.98 4 9 C3.34 9 2.68 9 2 9 C2 12.3 2 15.6 2 19 C-3 19 -3 19 -5.75 16.4375 C-8.24962032 13.15429964 -8.75296583 10.11723611 -9 6 C-7.88625 5.566875 -6.7725 5.13375 -5.625 4.6875 C-1.82487666 3.30088881 -1.82487666 3.30088881 0 0 Z " fill="#ffffffff" transform="translate(413,143)"/>
<path d="M0 0 C2 2 2 2 2.25 5.5 C2 9 2 9 0 11 C-1.875 11.30078125 -1.875 11.30078125 -4 11.3125 C-4.70125 11.32925781 -5.4025 11.34601563 -6.125 11.36328125 C-6.74375 11.24339844 -7.3625 11.12351563 -8 11 C-10.31361802 7.52957297 -10.51020728 6.08165827 -10 2 C-6.94783427 -1.63912068 -4.35383535 -1.23043173 0 0 Z " fill="#0D9644" transform="translate(426,181)"/>
<path d="M0 0 C1.875 1.125 1.875 1.125 3 3 C3.39365568 6.14924548 3.52854531 8.11909116 1.875 10.875 C-0.88090884 12.52854531 -2.85075452 12.39365568 -6 12 C-7.875 10.875 -7.875 10.875 -9 9 C-9.39365568 5.85075452 -9.52854531 3.88090884 -7.875 1.125 C-5.11909116 -0.52854531 -3.14924548 -0.39365568 0 0 Z " fill="#D0271F" transform="translate(425,150)"/>
<path d="M0 0 C2.3125 0.875 2.3125 0.875 4.3125 2.875 C4.78924265 6.53002698 4.74570271 8.24926275 2.625 11.3125 C0.3125 12.875 0.3125 12.875 -2.25 12.8125 C-4.87003113 11.80479572 -6.11287756 11.19549623 -7.6875 8.875 C-8.1875 6.4375 -8.1875 6.4375 -7.6875 3.875 C-5.13550457 1.10426211 -3.83647334 -0.17844062 0 0 Z " fill="#E0B71B" transform="translate(423.6875,165.125)"/>
<path d="M0 0 C1.98 0 3.96 0 6 0 C6 2.64 6 5.28 6 8 C4.02 8 2.04 8 0 8 C-0.79953138 4.71303767 -1.09658936 3.28976808 0 0 Z " fill="#F71F12" transform="translate(419,152)"/>
<path d="M0 0 C0.66 0 1.32 0 2 0 C2.20837644 4.09806991 2.33579156 7.07163509 0.9375 10.9375 C-1.78105237 13.83144285 -4.13820495 13.78140783 -8 14 C-8.66 12.02 -9.32 10.04 -10 8 C-9.01 8.495 -9.01 8.495 -8 9 C-5 9.25 -5 9.25 -2 9 C0.41121859 7.04366025 0.41121859 7.04366025 0.125 3.375 C0.08375 2.26125 0.0425 1.1475 0 0 Z " fill="#ffffffff" transform="translate(427,152)"/>
<path d="M0 0 C0.33 0.66 0.66 1.32 1 2 C1.99 1.34 2.98 0.68 4 0 C5.32 0 6.64 0 8 0 C7.34 1.98 6.68 3.96 6 6 C3.69 6 1.38 6 -1 6 C-0.67 4.02 -0.34 2.04 0 0 Z " fill="#ffffffff" transform="translate(178,325)"/>
<path d="M0 0 C1.65 0 3.3 0 5 0 C5.98120464 3.05263664 5.98120464 4.94736336 5 8 C3.02 8 1.04 8 -1 8 C-0.67 5.36 -0.34 2.72 0 0 Z " fill="#FDC202" transform="translate(420,167)"/>
<path d="M0 0 C0.99 0.33 1.98 0.66 3 1 C2.34 1 1.68 1 1 1 C1 3.31 1 5.62 1 8 C-0.32 8 -1.64 8 -3 8 C-3.36923077 3.44615385 -3.36923077 3.44615385 -1.5 1.1875 C-1.005 0.795625 -0.51 0.40375 0 0 Z " fill="#EABB19" transform="translate(419,166)"/>
<path d="M0 0 C0.721875 0.515625 1.44375 1.03125 2.1875 1.5625 C4.87465829 3.24098584 4.87465829 3.24098584 7.6875 2.8125 C10.15588836 2.13259902 10.15588836 2.13259902 12 0 C12 1.65 12 3.3 12 5 C9.2780754 6.3609623 7.8168043 5.70366248 4.875 5.0625 C3.96492188 4.86785156 3.05484375 4.67320312 2.1171875 4.47265625 C1.41851562 4.31667969 0.71984375 4.16070312 0 4 C0 2.68 0 1.36 0 0 Z " fill="#ffffffff" transform="translate(416,174)"/>
<path d="M0 0 C1.65 0 3.3 0 5 0 C5 0.66 5 1.32 5 2 C5.99 2.33 6.98 2.66 8 3 C7.67 3.66 7.34 4.32 7 5 C6.67 4.67 6.34 4.34 6 4 C1.85723125 3.75266863 1.85723125 3.75266863 -2 5 C-2 4.01 -2 3.02 -2 2 C-1.34 2 -0.68 2 0 2 C0 1.34 0 0.68 0 0 Z " fill="#ffffffff" transform="translate(419,147)"/>
<path d="M0 0 C1.485 0.99 1.485 0.99 3 2 C5.32387947 2.39387788 7.65793749 2.73486085 10 3 C5.90909091 5.72727273 5.90909091 5.72727273 3 6 C1.25 4.75 1.25 4.75 0 3 C0 2.01 0 1.02 0 0 Z " fill="#ffffffff" transform="translate(371,217)"/>
<path d="M0 0 C2.64 0 5.28 0 8 0 C7.67 0.66 7.34 1.32 7 2 C6.236875 2.12375 5.47375 2.2475 4.6875 2.375 C1.40472026 3.13843715 0.1786618 4.49857349 -2 7 C-1.42415568 4.61435923 -0.77772405 2.33317216 0 0 Z " fill="#ffffffff" transform="translate(188,300)"/>
<path d="M0 0 C0.66 0.66 1.32 1.32 2 2 C0.35 3.65 -1.3 5.3 -3 7 C-3.99 6.67 -4.98 6.34 -6 6 C-2.25 1.125 -2.25 1.125 0 0 Z " fill="#ffffffff" transform="translate(410,243)"/>
<path d="M0 0 C2.97 0 5.94 0 9 0 C7.515 1.485 7.515 1.485 6 3 C3.375 2.8125 3.375 2.8125 1 2 C0.67 1.34 0.34 0.68 0 0 Z " fill="#DEAF24" transform="translate(418,175)"/>
<path d="M0 0 C0.66 0 1.32 0 2 0 C2.33 1.65 2.66 3.3 3 5 C1.35 5 -0.3 5 -2 5 C-1.125 1.125 -1.125 1.125 0 0 Z " fill="#FD1F1F" transform="translate(421,155)"/>
<path d="" fill="#FFFFFF" transform="translate(0,0)"/>
<path d="" fill="#FFFFFF" transform="translate(0,0)"/>
<path d="" fill="#FFFFFF" transform="translate(0,0)"/>
<path d="" fill="#FFFFFF" transform="translate(0,0)"/>
<path d="" fill="#FFFFFF" transform="translate(0,0)"/>
<path d="" fill="#FFFFFF" transform="translate(0,0)"/>
<path d="" fill="#FFFFFF" transform="translate(0,0)"/>
<path d="" fill="#FFFFFF" transform="translate(0,0)"/>
<path d="" fill="#FFFFFF" transform="translate(0,0)"/>
<path d="" fill="#FFFFFF" transform="translate(0,0)"/>
<path d="" fill="#FFFFFF" transform="translate(0,0)"/>
<path d="" fill="#FFFFFF" transform="translate(0,0)"/>
<path d="" fill="#FFFFFF" transform="translate(0,0)"/>
<path d="" fill="#FFFFFF" transform="translate(0,0)"/>
<path d="" fill="#FFFFFF" transform="translate(0,0)"/>
<path d="" fill="#FFFFFF" transform="translate(0,0)"/>
<path d="" fill="#FFFFFF" transform="translate(0,0)"/>
<path d="" fill="#FFFFFF" transform="translate(0,0)"/>
<path d="" fill="#FFFFFF" transform="translate(0,0)"/>
<path d="" fill="#FFFFFF" transform="translate(0,0)"/>
<path d="" fill="#FFFFFF" transform="translate(0,0)"/>
<path d="" fill="#FFFFFF" transform="translate(0,0)"/>
<path d="" fill="#FFFFFF" transform="translate(0,0)"/>
<path d="" fill="#FFFFFF" transform="translate(0,0)"/>
<path d="" fill="#FFFFFF" transform="translate(0,0)"/>
<path d="" fill="#FFFFFF" transform="translate(0,0)"/>
<path d="" fill="#FFFFFF" transform="translate(0,0)"/>
<path d="" fill="#FFFFFF" transform="translate(0,0)"/>
<path d="" fill="#FFFFFF" transform="translate(0,0)"/>
<path d="" fill="#FFFFFF" transform="translate(0,0)"/>
<path d="" fill="#FFFFFF" transform="translate(0,0)"/>
<path d="" fill="#FFFFFF" transform="translate(0,0)"/>
<path d="" fill="#FFFFFF" transform="translate(0,0)"/>
<path d="" fill="#FFFFFF" transform="translate(0,0)"/>
<path d="" fill="#FFFFFF" transform="translate(0,0)"/>
<path d="" fill="#FFFFFF" transform="translate(0,0)"/>
<path d="" fill="#FFFFFF" transform="translate(0,0)"/>
<path d="" fill="#FFFFFF" transform="translate(0,0)"/>
<path d="" fill="#FFFFFF" transform="translate(0,0)"/>
<path d="" fill="#FFFFFF" transform="translate(0,0)"/>
<path d="" fill="#FFFFFF" transform="translate(0,0)"/>
<path d="" fill="#FFFFFF" transform="translate(0,0)"/>
<path d="" fill="#FFFFFF" transform="translate(0,0)"/>
<path d="" fill="#FFFFFF" transform="translate(0,0)"/>
<path d="" fill="#FFFFFF" transform="translate(0,0)"/>
<path d="" fill="#FFFFFF" transform="translate(0,0)"/>
<path d="" fill="#FFFFFF" transform="translate(0,0)"/>
<path d="" fill="#FFFFFF" transform="translate(0,0)"/>
<path d="" fill="#FFFFFF" transform="translate(0,0)"/>
<path d="" fill="#FFFFFF" transform="translate(0,0)"/>
<path d="" fill="#FFFFFF" transform="translate(0,0)"/>
<path d="" fill="#FFFFFF" transform="translate(0,0)"/>
<path d="" fill="#FFFFFF" transform="translate(0,0)"/>
<path d="" fill="#FFFFFF" transform="translate(0,0)"/>
<path d="" fill="#FFFFFF" transform="translate(0,0)"/>
<path d="" fill="#FFFFFF" transform="translate(0,0)"/>
<path d="" fill="#FFFFFF" transform="translate(0,0)"/>
<path d="" fill="#FFFFFF" transform="translate(0,0)"/>
<path d="" fill="#FFFFFF" transform="translate(0,0)"/>
<path d="" fill="#FFFFFF" transform="translate(0,0)"/>
<path d="" fill="#FFFFFF" transform="translate(0,0)"/>
<path d="" fill="#FFFFFF" transform="translate(0,0)"/>
<path d="" fill="#FFFFFF" transform="translate(0,0)"/>
<path d="" fill="#FFFFFF" transform="translate(0,0)"/>
</svg>
